<svg xmlns="http://www.w3.org/2000/svg" xmlns:xlink="http://www.w3.org/1999/xlink" width="190.755" height="43.574" viewBox="0 0 190.755 43.574">
  <defs>
    <linearGradient id="linear-gradient" x1="0.512" y1="0.507" x2="0.012" y2="1.37" gradientUnits="objectBoundingBox">
      <stop offset="0" stop-color="#ec8012"/>
      <stop offset="0.11" stop-color="#e86513"/>
      <stop offset="0.288" stop-color="#e44115"/>
      <stop offset="0.468" stop-color="#e12417"/>
      <stop offset="0.647" stop-color="#de1018"/>
      <stop offset="0.824" stop-color="#dd0419"/>
      <stop offset="0.998" stop-color="#dd001a"/>
    </linearGradient>
    <linearGradient id="linear-gradient-3" x1="0.533" y1="0.524" x2="0.033" y2="1.608" gradientUnits="objectBoundingBox">
      <stop offset="0" stop-color="#ee8910"/>
      <stop offset="0.14" stop-color="#e96512"/>
      <stop offset="0.312" stop-color="#e54115"/>
      <stop offset="0.486" stop-color="#e12417"/>
      <stop offset="0.659" stop-color="#df1018"/>
      <stop offset="0.83" stop-color="#dd0419"/>
      <stop offset="0.998" stop-color="#dd001a"/>
    </linearGradient>
    <linearGradient id="linear-gradient-4" x1="0.592" y1="0.554" x2="0.092" y2="1.422" gradientUnits="objectBoundingBox">
      <stop offset="0" stop-color="#e86d15"/>
      <stop offset="0.034" stop-color="#e76515"/>
      <stop offset="0.228" stop-color="#e34117"/>
      <stop offset="0.423" stop-color="#e02418"/>
      <stop offset="0.617" stop-color="#de1019"/>
      <stop offset="0.809" stop-color="#dd0419"/>
      <stop offset="0.998" stop-color="#dd001a"/>
    </linearGradient>
    <linearGradient id="linear-gradient-5" x1="0.488" y1="0.493" x2="-0.012" y2="1.356" gradientUnits="objectBoundingBox">
      <stop offset="0" stop-color="#e56016"/>
      <stop offset="0.179" stop-color="#d74116"/>
      <stop offset="0.385" stop-color="#cb2416"/>
      <stop offset="0.592" stop-color="#c21016"/>
      <stop offset="0.796" stop-color="#bd0416"/>
      <stop offset="0.998" stop-color="#bc0016"/>
    </linearGradient>
  </defs>
  <g id="orange_logo_-_black" data-name="orange logo - black" transform="translate(2535.286 -6066.495)">
    <path id="Path_1" data-name="Path 1" d="M632.27,557.882a11.9,11.9,0,1,0,11.9,11.9A11.9,11.9,0,0,0,632.27,557.882Zm0,18.585a6.688,6.688,0,1,1,6.688-6.688A6.688,6.688,0,0,1,632.27,576.467Z" transform="translate(-3103.244 5518.52)"/>
    <path id="Path_2" data-name="Path 2" d="M1050.65,557.882a11.9,11.9,0,1,0,11.9,11.9A11.9,11.9,0,0,0,1050.65,557.882Zm0,18.585a6.688,6.688,0,1,1,6.688-6.688,6.688,6.688,0,0,1-6.688,6.688Z" transform="translate(-3439.712 5518.52)"/>
    <path id="Path_3" data-name="Path 3" d="M774.323,557.841l-5.181,0v13.613a4.976,4.976,0,0,1-4.971,4.971H763a4.975,4.975,0,0,1-4.969-4.971l0-13.615-5.184,0v13.613A10.166,10.166,0,0,0,763,581.611h1.175a10.166,10.166,0,0,0,10.155-10.155Z" transform="translate(-3209.777 5518.553)"/>
    <path id="Path_4" data-name="Path 4" d="M882.063,562.621h6.022v-4.739H876.616a1.738,1.738,0,0,0-.031.2c-.031,4.732-.085,9.464-.071,14.2a9.734,9.734,0,0,0,.441,2.733,9.5,9.5,0,0,0,8.172,6.6c.824.07,1.658.01,2.531.01-.2-1.84-.376-3.546-.56-5.252a1.1,1.1,0,0,0-.073-.211c-.229,0-.45,0-.671,0a4.11,4.11,0,0,1-4.362-4.357q.043-4.284.072-8.569C882.064,563.048,882.063,562.864,882.063,562.621Z" transform="translate(-3309.235 5518.52)"/>
    <path id="Path_5" data-name="Path 5" d="M968.369,557.841h-6.9l-8.146,10.469V557.841h-5.756v23.8h5.756V570.97l8.079,10.67h6.968l-9.593-12.152Z" transform="translate(-3366.378 5518.553)"/>
    <path id="Path_6" data-name="Path 6" d="M1185.754,571.5a7.823,7.823,0,0,0-3.748-3.173,18.892,18.892,0,0,0-4.717-1.261l-.446-.078a5.314,5.314,0,0,1-2.791-1.221,1.247,1.247,0,0,1-.428-.991,1.267,1.267,0,0,1,.572-.936,2.685,2.685,0,0,1,.7-.356,6.724,6.724,0,0,1,2.125-.354,6.4,6.4,0,0,1,1.239.122,2.537,2.537,0,0,1,2.3,2.369.561.561,0,0,0,.627.529h.063q1.259-.039,2.519-.072l1.522-.042a1.141,1.141,0,0,0,.212-.031l.1-.02.19-.033.006-.193a7.083,7.083,0,0,0-1.7-4.912,8.267,8.267,0,0,0-5.732-2.9,15.4,15.4,0,0,0-1.542-.081,9.606,9.606,0,0,0-5.226,1.384,6.293,6.293,0,0,0-3.178,6.5,6.582,6.582,0,0,0,3.379,4.9,13.871,13.871,0,0,0,5.473,1.764,7.807,7.807,0,0,1,3.388,1.175,1.168,1.168,0,0,1,.073,2.026,2.782,2.782,0,0,1-.889.477,6.487,6.487,0,0,1-1.988.31,7.8,7.8,0,0,1-2.055-.291,2.674,2.674,0,0,1-2.3-2.694,2.147,2.147,0,0,0-.051-.257c-.01-.043-.021-.089-.032-.139l-.039-.188h-5.141l-.007.23a7.642,7.642,0,0,0,3.116,6.676,10.292,10.292,0,0,0,6.513,1.919c.118,0,.238,0,.357,0a9.545,9.545,0,0,0,5.423-1.594A6.56,6.56,0,0,0,1185.754,571.5Z" transform="translate(-3543.841 5518.531)"/>
    <g id="Group_1" data-name="Group 1" transform="translate(-2353.043 6091.597)">
      <path id="Path_7" data-name="Path 7" d="M1283.49,639.748c0,.054,0,.108,0,.161a4.258,4.258,0,0,0,5.6,3.877h0a4.254,4.254,0,0,0,1.56-7.143h0a4.254,4.254,0,0,0-7.163,3.106Z" transform="translate(-1283.49 -635.493)" fill="#e76c2d"/>
    </g>
    <g id="Group_2" data-name="Group 2" transform="translate(-2534.786 6066.995)">
      <path id="Union_6" data-name="Union 6" d="M21.091,42.569q-.265,0-.529-.011l-.1,0c-.147-.006-.294-.013-.441-.022l-.253-.016q-.253-.018-.5-.042a21.327,21.327,0,0,1-5.189-1.157l-.233-.085-.217-.082-.026-.01-.214-.084-.014-.006-.228-.093-.023-.01-.035-.014-.051-.022c-.05-.02-.1-.042-.15-.063l-.157-.068-.051-.022c-.078-.034-.157-.069-.233-.1-.155-.071-.309-.144-.462-.218l-.229-.113a21.327,21.327,0,0,1-3.635-2.31h0c-.066-.052-.132-.1-.2-.158h0q-.1-.078-.2-.16l-.194-.162-.063-.055-.128-.11-.182-.159L7.154,37.2l-.188-.169,0,0-.184-.17-.014-.013-.179-.169-.018-.017-.154-.149-.037-.036.077.074-.077-.074h0l0,0L6.36,36.46l-.125-.125-.046-.046L6.1,36.2h0Q6,36.1,5.909,36l-.186-.2h0l-.183-.2h0l-.171-.189-.007-.008,0,0c-.053-.059-.1-.119-.157-.179l-.164-.192-.162-.194-.029-.034c-.039-.047-.078-.095-.116-.142l-.015-.02-.007-.008-.151-.189,0-.005a21.354,21.354,0,0,1-2.42-3.86c-.074-.153-.147-.307-.218-.462-.036-.078-.07-.155-.1-.233s-.06-.137-.09-.206h0l-.012-.028-.063-.149-.037-.088c-.062-.15-.121-.3-.181-.45l-.05-.133-.041-.109-.01-.025-.076-.21A21.335,21.335,0,0,1,.095,23.3q-.023-.251-.042-.5c-.005-.085-.011-.169-.016-.253q-.014-.22-.022-.44l0-.1Q0,21.744,0,21.479H0c0-.13,0-.261,0-.392,0-.176.005-.352.011-.529,0-.026,0-.052,0-.078,0-.114.01-.227.016-.341s.013-.248.022-.372q.018-.252.042-.5.035-.377.085-.754c.022-.167.046-.333.071-.5q.116-.751.286-1.494c.038-.164.078-.329.119-.493q.187-.739.429-1.466c.053-.161.109-.322.166-.483.033-.092.067-.183.1-.274q.038-.1.078-.2a.125.125,0,0,1,.007-.018l.076-.193q.048-.119.1-.237l.009-.021a.025.025,0,0,1,0-.007c.008-.02.016-.039.025-.059l.063-.148.012-.028c.03-.069.059-.138.09-.207l.008-.02q.048-.108.1-.214.107-.233.218-.462.168-.344.347-.681h0q.119-.224.244-.446h0q.25-.445.519-.875c.045-.072.091-.144.137-.215q.548-.85,1.172-1.642A.24.24,0,0,1,4.572,8.1c.046-.057.091-.114.137-.171a.025.025,0,0,1,.006-.008l.016-.02c.047-.059.1-.117.144-.176h0l.137-.164.022-.027,0,0,.07-.082.078-.091.016-.02.157-.179.009-.01h0L5.5,7q.292-.322.6-.634A14.761,14.761,0,0,0,1.9,16.706,14.761,14.761,0,0,1,6.1,6.37l.042-.043.051-.051.045-.044.125-.124.014-.014.2-.189.2-.186c.128-.12.258-.238.388-.354.189-.167.38-.331.575-.492q.1-.082.2-.161l.2-.158q.4-.313.809-.607h0c.137-.1.276-.194.415-.289q.419-.285.853-.55c.19-.116.382-.229.577-.34l.16-.089c.121-.069.244-.135.367-.2l.226-.119q.339-.175.686-.339c.13-.061.261-.121.392-.18l.073-.033.071-.031.164-.07c.078-.033.157-.067.236-.1l.21-.086.027-.011h0l.193-.076.018-.007.028-.011.211-.08A21.305,21.305,0,0,1,18.766.144q.25-.03.5-.053c.168-.017.336-.03.5-.042l.252-.016c.147-.009.294-.016.441-.022l.092,0Q20.823,0,21.089,0q.2,0,.394,0c.176,0,.352.005.529.011l.087,0c.15.005.3.013.45.022L22.8.048q.5.036,1.007.1a21.3,21.3,0,0,1,4.687,1.1l.209.076.025.009.029.011.186.071q.48.185.948.392.235.1.465.213h0q.347.164.685.339h0q.339.176.672.363.775.437,1.51.936h0a21.423,21.423,0,0,1,2.382,1.877h0l.184.17.014.013.122.115L36,5.9l.154.15.011.011.042.041.127.126.044.044.093.095,0,0,.036.037.149.154.017.018c.057.059.113.119.169.179l.013.014.17.184,0,0,.169.188.007.008.159.182.164.192.162.194c.054.065.107.129.16.2h0l.158.2h0a21.321,21.321,0,0,1,2.424,3.863q.111.23.218.462c.036.078.07.155.1.233s.069.157.1.235.061.143.091.215c0,.007.005.014.009.021q.092.223.179.448l.078.2c.034.091.068.183.1.274a21.327,21.327,0,0,1,1.156,5.188c.008.083.015.168.022.252s.013.166.02.25v.007c.005.078.011.157.015.237a.114.114,0,0,1,0,.015c.009.144.016.287.021.431,0,.035,0,.07,0,.106.006.175.009.35.011.526h0q0,.2,0,.394,0,.263-.011.524v.037c0,.021,0,.042,0,.064q-.008.22-.022.44a.123.123,0,0,1,0,.015c0,.079-.01.158-.015.237h0q-.018.252-.042.5a21.27,21.27,0,0,1-1.157,5.188h0l-.076.209-.009.025c0,.009-.007.02-.011.03-.01.027-.02.053-.031.079-.016.044-.034.089-.05.133q-.088.227-.181.45a.217.217,0,0,0-.009.021l0,.006c-.009.02-.017.041-.025.06q-.03.074-.063.149l-.008.018,0,.01c-.009.022-.018.042-.028.064-.02.048-.041.1-.062.143-.031.069-.062.137-.093.207a.235.235,0,0,1-.012.027h0c-.035.078-.072.154-.108.231s-.073.154-.11.23h0l-.113.228h0a21.348,21.348,0,0,1-1.557,2.618l-.146.207q-.147.206-.3.408c-.051.067-.1.135-.153.2l-.155.2c-.052.066-.1.132-.158.2s-.092.114-.14.171a.255.255,0,0,1-.02.025l-.141.169-.021.025h0l-.164.191h0l-.157.179h0l-.008.009-.171.189h0l-.183.2h0l-.186.2q-.094.1-.189.194h0c-.045.047-.09.092-.137.138l-.127.126-.012.012,0,0-.037.036L36,36.654l-.018.017c-.059.057-.119.113-.179.169l-.014.013-.184.17,0,0c-.062.057-.125.114-.188.169l-.189.166-.192.165h0c-.128.109-.258.217-.389.322-.065.053-.132.105-.2.158a21.321,21.321,0,0,1-3.635,2.31h0l-.228.113h0q-.23.111-.462.218h0l-.233.1c-.072.032-.144.064-.215.094l-.02.008-.074.031-.135.057-.023.01q-.228.094-.456.182l-.026.01-.176.066-.041.015-.025.01-.209.076h0a21.327,21.327,0,0,1-5.188,1.156q-.251.024-.5.042c-.085.006-.168.012-.253.016-.147.009-.294.016-.441.022l-.1,0c-.176.006-.352.009-.529.011h-.2A1.419,1.419,0,0,1,21.091,42.569Zm-4.382-1.9a14.853,14.853,0,0,0,3.425-.4,14.868,14.868,0,0,1-3.425.4Zm0,0Zm13.93-1.426h0Zm3.85-4.764a14.866,14.866,0,0,1-3.844,4.759,14.866,14.866,0,0,0,3.844-4.759,14.715,14.715,0,0,0,1.584-5.821,14.714,14.714,0,0,1-1.584,5.821ZM16.711,31.512a14.889,14.889,0,0,0,2.278-.176,14.892,14.892,0,0,1-2.278.176Zm0,0Zm-4.738-.775-.048-.016ZM6.477,14.806A14.8,14.8,0,0,0,21.171,29.614H21.4c.139,0,.277-.007.415-.016h.013l.192-.015h.018q.144-.013.287-.031a.183.183,0,0,0,.026,0c.059-.007.117-.015.176-.025.182-.027.362-.059.54-.1l.153-.034.048-.012.146-.037.124-.034.1-.028.029-.009.133-.041.126-.041.094-.032.166-.059q.088-.032.173-.067l.036-.014.092-.038.023-.009.023-.01.023-.009.013-.006.01,0,.023-.01.069-.03h0l.037-.017.03-.013.008,0c.041-.02.082-.038.123-.059l.051-.023.064-.032.009,0c.012-.006.025-.011.037-.018l.042-.022.027-.013h0l.018-.01.088-.046.071-.038h0l.176-.1h0c.032-.02.064-.038.1-.059l.078-.046h0l.057-.036a.3.3,0,0,0,.034-.022l.015-.009c.022-.013.044-.027.065-.041l.064-.042a.515.515,0,0,0,.048-.032c.02-.012.039-.025.059-.039s.039-.025.056-.039l.021-.014.01-.007.081-.057.069-.051.1-.07h0l.061-.048.036-.028c.022-.016.044-.033.066-.051h0l.052-.042c.025-.02.051-.041.076-.062l.006,0,.027-.022.117-.1c.014-.011.027-.023.041-.035s.02-.019.031-.027c.031-.027.059-.053.089-.081a.34.34,0,0,0,.036-.033h0l.021-.02h0c.024-.021.048-.044.072-.067l.059-.056h0l.081-.081h0l.041-.041.039-.041c.02-.02.038-.039.055-.059s.047-.05.07-.074.044-.046.063-.07.046-.049.067-.074.044-.049.065-.074q.1-.112.19-.226c.036-.043.07-.088.1-.132l.018-.023c.016-.02.032-.041.047-.06s.048-.064.071-.1c.039-.052.078-.106.114-.16.02-.027.039-.054.057-.081s.038-.055.055-.082c.037-.053.071-.107.1-.162.02-.029.038-.059.055-.088s.022-.035.032-.053a.226.226,0,0,0,.02-.032q.052-.086.1-.171c.032-.057.065-.115.1-.173a.064.064,0,0,0,.006-.012c.014-.025.027-.05.039-.075,0-.006.006-.012.01-.019s.017-.032.025-.048l.011-.022c.006-.012.013-.024.018-.036s.018-.035.027-.053h0c.008-.015.015-.03.022-.045s.023-.048.034-.072.013-.025.018-.038l.011-.023c0-.008.007-.015.01-.022h0l.022-.05c.013-.029.026-.059.038-.086s.011-.025.016-.038l0-.008.008-.02c0-.006.008-.016.011-.025.016-.038.032-.076.048-.115l.009-.023c.025-.062.048-.124.072-.186s.04-.11.059-.166a.207.207,0,0,0,.007-.022c.009-.024.017-.049.025-.073q.064-.192.117-.385c.027-.1.053-.2.077-.294.016-.066.031-.132.045-.2q.043-.2.076-.4c.017-.1.032-.2.044-.305.022-.171.038-.344.049-.517.009-.14.015-.279.017-.42h0v-.231c0-.141-.008-.281-.016-.42h0q-.016-.26-.049-.516h0c-.013-.1-.027-.2-.044-.306-.022-.135-.048-.269-.076-.4-.014-.067-.029-.132-.045-.2h0q-.035-.147-.077-.294h0q-.054-.194-.117-.385l-.025-.074a.206.206,0,0,0-.007-.022l-.059-.166-.008-.023q-.03-.082-.063-.163c0-.008-.006-.015-.009-.023q-.028-.069-.057-.137l-.02-.047L28.9,17.9l-.014-.031-.005-.012-.016-.036c-.011-.023-.022-.047-.033-.07l-.012-.025a.014.014,0,0,0,0-.007q-.02-.045-.042-.088h0l-.059-.119-.02-.041-.01-.018c-.014-.029-.03-.059-.046-.088s-.025-.048-.038-.072h0c-.02-.034-.038-.067-.057-.1s-.028-.05-.042-.075c-.034-.059-.069-.116-.1-.174a.015.015,0,0,0,0-.007c-.017-.028-.034-.056-.052-.084,0,0,0,0,0,0a.268.268,0,0,0-.018-.029c-.01-.017-.02-.033-.031-.05l-.056-.084c-.019-.028-.036-.055-.055-.082a.006.006,0,0,0,0,0h0l-.117-.168-.044-.06-.006-.009L28,16.357c-.032-.045-.066-.089-.1-.133l-.012-.016-.041-.052-.02-.025c-.013-.018-.027-.036-.042-.053l-.019-.023-.038-.045a.305.305,0,0,0-.025-.031c-.02-.025-.041-.05-.063-.075s-.042-.05-.064-.075-.041-.048-.062-.071l0,0-.066-.073-.031-.033c-.011-.011-.022-.025-.035-.038s-.028-.03-.042-.045a.35.35,0,0,0-.026-.028l-.014-.015-.02-.02-.023-.024-.012-.012c-.022-.024-.045-.047-.069-.07h0l-.082-.081c-.02-.02-.039-.038-.059-.055a.243.243,0,0,0-.028-.027c-.014-.015-.029-.028-.044-.041h0a0,0,0,0,0,0,0c-.023-.022-.046-.043-.069-.063s-.049-.046-.073-.066q-.11-.1-.223-.192-.038-.033-.076-.062l0,0c-.039-.032-.078-.064-.117-.094l-.032-.025s0,0,0,0c-.052-.041-.1-.081-.157-.117-.023-.018-.046-.035-.069-.051s-.061-.043-.091-.063c-.054-.039-.108-.076-.163-.111s-.11-.074-.166-.107a.051.051,0,0,0-.015-.01c-.025-.017-.05-.032-.076-.048l-.078-.046-.02-.011q-.158-.1-.32-.181a.006.006,0,0,0-.005,0l-.088-.046-.019-.01h0l-.034-.017-.035-.018h0c-.059-.031-.119-.059-.179-.088h0l-.089-.042L24.74,13.7h0l-.03-.014-.02-.009-.018-.008-.069-.03-.023-.01-.01,0-.013-.006-.023-.01-.023-.009-.023-.01-.092-.038-.093-.036h0l-.116-.044-.166-.059-.094-.033-.1-.031-.1-.03-.1-.029c-.033-.009-.064-.02-.1-.028A8.277,8.277,0,0,0,22.136,13l-.1-.01c-.1-.009-.209-.016-.313-.022l-.1,0c-.069,0-.138,0-.208-.006h0c-.02,0-.038,0-.058,0s-.039,0-.059,0h-.115c-.07,0-.141,0-.211.006l-.1,0c-.1.005-.209.013-.313.022l-.1.01a8.275,8.275,0,0,0-1.407.265l-.1.028c-.186.055-.369.115-.548.182-.117.043-.233.089-.348.137l-.023.01-.014.006-.01,0-.123.054-.007,0-.029.014h0l-.022.011h0l-.089.042c-.059.028-.119.057-.179.088l-.035.018-.034.017-.02.01c-.029.015-.059.03-.088.046l-.005,0q-.162.085-.32.181l-.02.011-.078.047-.076.047-.015.01c-.056.034-.111.07-.166.107s-.108.072-.163.111-.108.076-.161.115-.105.077-.157.117l-.034.026-.117.094-.078.064q-.113.092-.224.192c-.025.022-.049.043-.073.066s-.046.042-.069.063l-.075.071-.059.055L15.4,15.4h0l-.069.07-.012.012c-.02.02-.038.039-.056.059l-.069.073a.223.223,0,0,0-.02.022c-.039.041-.076.082-.114.125L15,15.83c-.02.024-.043.049-.064.075s-.037.044-.056.066l-.008.009c-.02.025-.041.051-.062.076l-.018.023c-.015.018-.029.035-.042.053a.22.22,0,0,0-.02.025l-.041.052-.017.022c-.014.02-.029.038-.042.057s-.031.039-.044.06a.165.165,0,0,0-.02.027c-.031.041-.059.082-.088.123a.267.267,0,0,0-.02.028l-.005.008-.035.05a.172.172,0,0,0-.013.02l-.043.065-.014.021c-.02.028-.037.056-.056.084l-.031.05-.072.116,0,.007c-.015.025-.031.05-.044.074,0,0,0,0,0,0l-.016.027c-.029.048-.057.1-.083.144l-.057.1h0l-.039.072c-.018.033-.035.066-.052.1l0,.007c-.006.012-.012.023-.017.034l0,.006c-.006.01-.011.02-.015.03s-.014.027-.02.041-.017.034-.025.05l-.023.048-.033.071-.027.059-.021.048c-.024.052-.047.1-.069.157l0,.008c-.009.02-.018.041-.026.061l-.047.116-.027.07q-.036.093-.07.187c-.023.063-.044.126-.066.189l-.032.1c-.053.168-.1.338-.145.51-.012.05-.024.1-.035.15s-.02.082-.028.123q-.043.2-.076.4c-.011.068-.021.135-.031.2s-.015.115-.022.173-.015.131-.02.2h0c-.02.22-.033.444-.036.669h0V21.4a8.3,8.3,0,0,0,.053.835c.008.069.016.137.026.205s.02.136.031.2q.033.2.076.4c.007.034.014.067.022.1q.023.1.048.2c.041.164.088.326.139.485q.046.144.1.285c.023.063.046.125.07.187h0c.009.023.018.046.027.069l.006.015c.013.034.027.067.041.1s.02.046.029.069h0c.025.059.051.119.078.178l0,0,.01.022c.021.045.042.089.063.133s.03.063.046.094.02.042.031.063.016.032.025.048c.018.035.036.071.056.106q.046.088.1.173c.013.025.027.05.042.076l.022.035c.018.031.036.062.055.093a.6.6,0,0,0,.032.052c.017.029.035.059.054.088q.05.081.1.162c.041.065.085.128.131.192.031.045.062.088.095.132.018.027.038.053.059.079l.013.017.029.037a.191.191,0,0,0,.019.024c.005.008.011.015.018.023.034.044.068.088.1.132.02.026.042.051.063.077l.063.075c.021.025.042.05.064.075l.062.071,0,0c.031.036.063.072.1.107l.017.02.085.089a0,0,0,0,0,0,0l.021.022a14.773,14.773,0,0,1-4.23-10.345,14.773,14.773,0,0,0,4.222,10.34l.012.012.023.024.012.012.006.006c.011.013.024.025.037.038l.026.026.07.069.012.012h0a.228.228,0,0,0,.025.024l.032.032a.326.326,0,0,0,.028.026c.015.015.03.029.045.042l.022.02h0l.035.033.014.013.073.066h0l.023.022.01.008.039.035c.025.022.05.043.075.064l.042.037.025.02c.028.023.056.047.084.069l.029.023.023.02.024.02c.014.011.028.023.042.032a.422.422,0,0,0,.035.028c.02.017.041.033.061.048h0l.1.07c.053.039.107.078.161.115l.142.1.021.014.021.014q.073.05.145.093c.056.036.113.07.169.1.109.066.218.128.33.187l.006,0,.009.005c.02.012.041.023.062.033l.025.013.02.01.018.009.02.01.073.037.025.013.043.022.051.023.123.059.008,0,.029.013.007,0,.123.054.01,0,.014.006.023.009.137.057.187.072.023.008c.117.044.235.085.356.123.064.02.128.041.192.059h0c.032.009.064.02.1.028l.1.027c.066.018.131.034.2.05h0c.066.016.132.031.2.045.166.036.334.067.5.092q.1.016.2.029h0q.134.017.268.029l.041,0c.069.006.137.011.207.016h0c.139.009.279.014.42.016A14.8,14.8,0,0,1,6.471,14.806ZM36.1,27.76v0Zm-5.39-15.9a14.8,14.8,0,0,1,9.97,14,14.82,14.82,0,0,0-9.97-14l-.1-.034Zm-2.7,2.7a14.876,14.876,0,0,1,6.6,6.722,14.876,14.876,0,0,0-6.6-6.722Zm-5.9-3.023a14.87,14.87,0,0,1,3.759-.484,14.858,14.858,0,0,0-3.758.483Zm3.768-.484ZM22.417,2.3a14.877,14.877,0,0,1,3.449-.406,14.861,14.861,0,0,0-3.447.406Zm3.459-.406ZM6.377,36.476Z" transform="translate(0.001 0.005)" stroke="rgba(0,0,0,0)" stroke-miterlimit="10" stroke-width="1" fill="url(#linear-gradient)"/>
      <path id="Union_3" data-name="Union 3" d="M21.53,27.366A14.807,14.807,0,0,0,8.45,5.835h0c-.02,0-.038,0-.058,0s-.039,0-.059,0H8.215c-.07,0-.141,0-.211.006l-.1,0c-.1.005-.209.013-.313.022l-.1.01a8.275,8.275,0,0,0-1.407.265l-.1.028c-.186.055-.369.115-.548.182-.117.043-.233.089-.348.137l-.023.01-.014.006-.01,0-.123.054-.007,0-.029.014h0l-.022.011h0l-.089.042c-.059.028-.119.057-.179.088l-.035.018-.034.017-.02.01c-.029.015-.059.03-.088.046l-.005,0Q4.245,6.9,4.087,7l-.02.011-.078.047L3.913,7.1,3.9,7.11c-.056.034-.111.07-.166.107s-.109.072-.163.111-.108.076-.161.115-.105.077-.157.117l-.034.026L3.1,7.681l-.078.064q-.113.092-.224.192c-.025.022-.049.043-.073.066s-.046.042-.069.063l-.075.071-.059.055A14.733,14.733,0,0,1,8.331,4.66l.137-.043-.137.043a14.733,14.733,0,0,0-5.81,3.533l-.082.081h0l-.069.07-.012.012c-.02.02-.038.039-.056.059l-.069.073a.224.224,0,0,0-.02.022c-.039.041-.076.082-.114.125l-.062.071c-.02.024-.043.049-.064.075s-.037.044-.056.066l-.008.009c-.02.025-.041.051-.062.076l-.018.023c-.015.018-.029.035-.042.053a.22.22,0,0,0-.02.025l-.041.052-.017.022c-.014.02-.029.038-.042.057s-.031.039-.044.06a.165.165,0,0,0-.02.027c-.031.041-.059.082-.088.123A.267.267,0,0,0,1.5,9.4l-.005.008-.035.05a.172.172,0,0,0-.013.02L1.4,9.547l-.014.021c-.02.028-.037.056-.056.084L1.3,9.7l-.072.116,0,.007c-.015.025-.031.05-.044.074,0,0,0,0,0,0l-.016.027c-.029.048-.057.1-.083.144l-.057.1h0l-.039.072c-.018.033-.035.066-.052.1l0,.007c-.006.012-.012.023-.017.034l0,.006c-.006.01-.011.02-.015.03s-.014.027-.02.041-.017.034-.025.05l-.023.048-.033.071-.027.059-.021.048c-.024.052-.047.1-.069.157l0,.008c-.009.02-.018.041-.026.061l-.047.116-.027.07q-.036.093-.07.187c-.023.063-.044.126-.066.189l-.032.1c-.053.168-.1.338-.145.51-.012.05-.024.1-.035.15s-.02.082-.028.123q-.046.2-.079.4c-.012.069-.021.135-.031.2s-.015.115-.022.173-.015.131-.02.2h0C.015,13.6,0,13.825,0,14.05a14.809,14.809,0,1,1,29.618-.082c0,.131,0,.262,0,.394q0,.263-.011.524v.037c0,.021,0,.042,0,.064q-.008.22-.022.44a.124.124,0,0,1,0,.015c0,.079-.01.158-.015.237h0q-.018.252-.042.5a21.27,21.27,0,0,1-1.157,5.188h0l-.076.209-.009.025c0,.009-.007.02-.011.03-.01.027-.02.053-.031.079-.016.044-.034.089-.05.133q-.088.227-.181.45a.217.217,0,0,0-.009.021l0,.006c-.009.02-.017.041-.025.06q-.03.074-.063.149l-.008.018,0,.01c-.009.022-.018.042-.028.064-.02.048-.041.1-.062.143-.031.069-.062.137-.093.207A.235.235,0,0,1,27.7,23h0c-.035.078-.072.154-.108.231s-.073.154-.11.23h0l-.113.228h0a21.347,21.347,0,0,1-1.557,2.618l-.146.207q-.147.206-.3.408c-.051.067-.1.135-.153.2l-.155.2c-.052.066-.1.132-.158.2s-.092.114-.14.171a.253.253,0,0,1-.02.025l-.141.169-.021.025h0l-.164.191h0l-.157.179h0l-.008.009-.171.189h0l-.183.2h0l-.186.2q-.094.1-.189.194h0c-.045.047-.09.092-.137.138l-.127.126-.012.012,0,0-.037.036-.154.149-.018.017c-.059.057-.119.113-.179.169l-.014.013-.184.17,0,0c-.062.057-.125.114-.188.169l-.189.166-.192.165h0q-.192.164-.389.322c-.065.053-.132.105-.2.158a21.321,21.321,0,0,1-3.635,2.31h0l-.228.113h0q-.23.111-.462.218h0l-.233.1c-.072.032-.144.064-.215.094l-.02.008-.074.031-.135.057-.023.01q-.228.094-.456.182l-.026.01-.176.066-.041.015-.025.01-.209.076h0a21.327,21.327,0,0,1-5.188,1.156q-.251.024-.5.042c-.085.006-.168.012-.253.016-.147.009-.294.016-.441.022l-.1,0c-.176.006-.352.009-.529.011a14.808,14.808,0,0,0,13-8.078ZM17.751,4.747a14.8,14.8,0,0,1,9.97,14,14.82,14.82,0,0,0-9.971-14l-.1-.034ZM8.527,4.6a14.857,14.857,0,0,1,4.38-.661,14.853,14.853,0,0,0-4.379.66Zm4.389-.661Z" transform="translate(12.956 7.122)" stroke="rgba(0,0,0,0)" stroke-miterlimit="10" stroke-width="1" opacity="0.85" fill="url(#linear-gradient)"/>
      <path id="Union_4" data-name="Union 4" d="M8.063,28.009A14.811,14.811,0,0,1,14.587,0h.394c.176,0,.352.005.529.011l.087,0c.15.005.3.013.45.022L16.3.052q.5.036,1.007.1a21.3,21.3,0,0,1,4.687,1.1l.209.076.025.009.029.011.186.071q.48.185.948.392.235.1.465.213h0q.347.164.685.339h0q.339.176.672.363.775.437,1.51.936h0A21.423,21.423,0,0,1,29.1,5.537h0l.184.17.014.013.122.115.075.071.154.15.011.011.042.041.127.126.044.044.093.095,0,0,.036.037.149.154.017.018c.057.059.113.119.169.179l.013.014.17.184,0,0,.169.188.007.008.159.182.164.192.162.194c.054.065.107.129.16.2h0l.158.2h0a21.321,21.321,0,0,1,2.424,3.863q.111.23.218.462c.036.078.07.155.1.233s.069.157.1.235.061.143.091.215c0,.007.005.014.009.021q.092.223.179.448l.078.2c.034.091.068.183.1.274a21.327,21.327,0,0,1,1.157,5.188c.008.083.015.168.022.252s.013.166.02.25v.007c.005.078.011.157.015.237a.114.114,0,0,1,0,.015c.009.144.016.287.021.431,0,.035,0,.07,0,.106.006.175.009.35.011.526a14.809,14.809,0,1,0-29.618.082h0V21.4a8.3,8.3,0,0,0,.053.835c.008.069.016.137.026.205s.02.136.031.2q.033.2.076.4c.007.034.014.067.022.1q.023.1.048.2c.041.164.088.326.139.485q.046.144.1.285c.023.063.046.125.07.187h0c.009.023.018.046.027.069l.006.015c.013.034.027.067.041.1s.02.046.029.069h0c.025.059.051.119.078.178l0,0,.01.022c.021.045.042.089.063.133s.03.063.046.094.02.042.031.063.016.032.025.048c.018.035.036.071.056.106q.046.088.1.173c.013.025.027.05.042.076l.022.035c.018.031.036.062.055.093a.6.6,0,0,0,.032.052c.017.029.035.059.054.088q.05.081.1.162c.041.065.085.128.131.192.031.045.062.088.095.132.018.027.038.053.059.079l.013.017.029.037a.191.191,0,0,0,.019.024c.005.008.011.015.018.023.034.044.068.088.1.132.02.026.042.051.063.077l.063.075c.021.025.042.05.064.075l.062.071,0,0c.031.036.063.072.1.107l.017.02.085.089a0,0,0,0,0,0,0l.021.022A14.773,14.773,0,0,1,4.556,16.72,14.773,14.773,0,0,0,8.777,27.059l.012.012.023.024.012.012.006.006c.011.013.024.025.037.038l.026.026.07.069.012.012h0A.228.228,0,0,0,9,27.284l.033.032a.326.326,0,0,0,.028.026c.015.015.03.029.045.042l.022.02h0l.035.033.015.013.073.066h0l.023.022.01.008.039.035c.025.022.05.043.075.064l.042.037.025.02c.028.023.056.047.084.069l.029.023.023.02.024.02c.014.011.028.023.042.032a.422.422,0,0,0,.035.028c.02.017.041.033.061.048h0l.1.07c.053.039.107.078.161.115l.142.1.021.014.021.014q.073.05.145.093c.056.036.113.07.169.1.109.066.218.128.33.187l.006,0,.009.005c.02.012.041.023.062.032l.025.013.02.01.018.009.02.01.073.037.025.013.043.022.051.023.123.059.008,0,.029.013.007,0,.123.054.01,0,.014.006.023.009.137.057.187.072.023.008c.117.044.235.085.356.123.064.02.128.041.192.059h0c.032.009.064.02.1.028l.1.027c.066.018.131.034.2.05h0c.066.016.132.031.2.045.166.036.334.067.5.092q.1.016.2.029h0q.134.017.268.029l.041,0c.069.006.137.011.207.016h0c.139.009.279.014.42.016a14.726,14.726,0,0,1-6.6-1.611Zm6.764-25.4a14.851,14.851,0,0,1,4.537-.71,14.847,14.847,0,0,0-4.538.71Zm4.547-.71Z" transform="translate(6.502 0.001)" stroke="rgba(0,0,0,0)" stroke-miterlimit="10" stroke-width="1" opacity="0.85" fill="url(#linear-gradient-3)"/>
      <path id="Union_2" data-name="Union 2" d="M21.09,29.617q-.265,0-.529-.011l-.1,0c-.147-.006-.294-.013-.441-.022l-.253-.016q-.253-.018-.5-.042a21.327,21.327,0,0,1-5.189-1.156l-.233-.085-.217-.082-.026-.01-.214-.084-.014-.006-.228-.093L13.123,28l-.035-.014-.051-.022c-.05-.02-.1-.042-.15-.063l-.157-.068-.051-.022c-.078-.034-.157-.069-.233-.1-.155-.071-.309-.144-.462-.218l-.229-.113A21.327,21.327,0,0,1,8.121,25.06h0c-.066-.052-.132-.1-.2-.158h0q-.1-.078-.2-.16l-.194-.162-.063-.055-.128-.11-.182-.16-.008-.007-.188-.169,0,0-.184-.17L6.765,23.9l-.179-.169-.018-.017-.154-.149-.037-.036h0l0,0-.014-.014-.125-.125-.046-.046L6.1,23.244h0q-.1-.1-.189-.194l-.186-.2h0l-.183-.2h0l-.171-.189-.007-.008,0,0c-.053-.059-.1-.119-.157-.179l-.164-.192-.162-.194-.029-.034c-.039-.047-.078-.095-.116-.142l-.015-.02-.007-.008L4.557,21.5l0-.005a21.354,21.354,0,0,1-2.419-3.859c-.074-.153-.147-.307-.218-.462-.036-.078-.07-.155-.1-.233s-.06-.137-.09-.206h0L1.709,16.7l-.064-.15-.037-.088c-.062-.15-.121-.3-.181-.45l-.05-.133-.041-.109-.01-.025-.076-.209A21.336,21.336,0,0,1,.094,10.35Q.07,10.1.052,9.846C.047,9.761.041,9.677.036,9.593Q.023,9.372.015,9.152l0-.1Q0,8.791,0,8.527a14.809,14.809,0,1,0,29.618-.08c0-.038,0-.077,0-.116V8.216c0-.141-.008-.281-.016-.42h0q-.016-.26-.049-.516h0c-.013-.1-.027-.2-.044-.306-.022-.135-.048-.269-.076-.4-.014-.067-.029-.132-.045-.2h0q-.035-.147-.077-.294h0q-.054-.194-.117-.385l-.025-.074a.206.206,0,0,0-.007-.022L29.1,5.434l-.008-.023q-.03-.082-.063-.163c0-.008-.006-.015-.009-.023q-.028-.069-.057-.137l-.02-.047L28.9,4.949l-.014-.031-.005-.012-.016-.036c-.011-.023-.022-.047-.033-.07l-.012-.025a.014.014,0,0,0,0-.007q-.02-.045-.042-.088h0L28.72,4.56l-.02-.041-.01-.018c-.014-.029-.03-.059-.046-.088s-.025-.048-.038-.072h0c-.02-.034-.038-.067-.057-.1s-.028-.05-.042-.075c-.034-.059-.069-.116-.1-.174a.015.015,0,0,0,0-.007c-.017-.028-.034-.056-.052-.084,0,0,0,0,0,0a.268.268,0,0,0-.018-.029c-.01-.017-.02-.033-.031-.05l-.056-.084c-.019-.028-.036-.055-.055-.082a.006.006,0,0,0,0,0h0l-.117-.168-.044-.06-.006-.009L28.008,3.4c-.032-.045-.066-.089-.1-.133L27.9,3.255,27.856,3.2l-.02-.025c-.013-.018-.027-.036-.042-.053L27.775,3.1l-.038-.045a.3.3,0,0,0-.025-.031c-.02-.025-.041-.05-.063-.075s-.042-.05-.064-.075-.041-.048-.062-.071l0,0-.066-.073-.031-.033c-.011-.011-.022-.025-.035-.038s-.028-.03-.042-.045a.351.351,0,0,0-.026-.028l-.014-.015A14.759,14.759,0,0,1,31.521,12.9,14.761,14.761,0,0,0,27.3,2.562l-.017-.017-.023-.024-.012-.012c-.022-.024-.045-.047-.069-.07h0l-.082-.081c-.02-.02-.039-.038-.059-.055a.243.243,0,0,0-.028-.027c-.014-.015-.029-.028-.044-.041h0l0,0c-.023-.022-.046-.043-.069-.063s-.049-.046-.073-.066q-.11-.1-.223-.192-.038-.033-.076-.062l0,0c-.039-.032-.078-.064-.117-.094l-.033-.025s0,0,0,0c-.052-.041-.1-.081-.157-.117-.023-.018-.046-.035-.069-.051s-.061-.043-.091-.063c-.054-.039-.108-.076-.163-.111s-.11-.074-.166-.107a.051.051,0,0,0-.015-.01c-.025-.017-.05-.032-.076-.048l-.078-.046-.02-.011q-.158-.1-.32-.181a.006.006,0,0,0-.005,0L25.118.931,25.1.921h0L25.066.9,25.03.886h0C24.972.856,24.912.827,24.852.8h0L24.762.757,24.74.746h0L24.708.732l-.02-.009-.02-.009L24.6.685l-.023-.01-.01,0L24.554.665l-.023-.01L24.509.646l-.023-.01L24.394.6,24.3.562h0L24.185.518,24.019.459,23.925.427,23.829.4l-.1-.03-.1-.029c-.033-.009-.064-.02-.1-.028A8.277,8.277,0,0,0,22.132.042l-.1-.01c-.1-.009-.209-.016-.313-.022l-.1,0C21.543,0,21.474,0,21.4,0a14.81,14.81,0,0,1,.078,29.617H21.09Zm-4.386-1.9Zm0,0a14.846,14.846,0,0,0,4.508-.7,14.851,14.851,0,0,1-4.507.7ZM6.453,23.6l-.077-.074Z" transform="translate(0.001 12.957)" stroke="rgba(0,0,0,0)" stroke-miterlimit="10" stroke-width="1" opacity="0.85" fill="url(#linear-gradient-4)"/>
      <path id="Union_5" data-name="Union 5" d="M8.088,34.485A14.807,14.807,0,0,1,0,21.482c0-.13,0-.261,0-.392,0-.176.005-.352.011-.529,0-.026,0-.052,0-.078,0-.114.01-.227.016-.341s.013-.248.022-.372q.018-.252.042-.5.035-.377.085-.754c.022-.167.046-.333.071-.5q.116-.751.286-1.494c.038-.164.078-.329.119-.493q.187-.739.429-1.466c.053-.161.109-.322.166-.483.033-.092.067-.183.1-.274q.038-.1.078-.2a.125.125,0,0,1,.007-.018l.076-.193c.032-.079.064-.159.1-.237l.009-.021a.025.025,0,0,1,0-.007c.008-.02.016-.039.025-.059l.063-.148.012-.028c.03-.069.059-.138.09-.207l.008-.02q.048-.108.1-.214.107-.233.218-.462.168-.344.347-.681h0q.119-.224.244-.446h0q.25-.443.519-.872c.045-.072.091-.144.137-.215q.548-.85,1.172-1.642A.24.24,0,0,1,4.573,8.1c.046-.057.091-.114.137-.171a.025.025,0,0,1,.006-.008l.016-.02c.047-.059.1-.117.144-.176h0q.068-.083.137-.164l.022-.027,0,0,.07-.082.078-.091.016-.02.157-.179.009-.01h0L5.5,7.009q.292-.322.6-.634A14.76,14.76,0,0,0,1.9,16.709,14.76,14.76,0,0,1,6.1,6.373L6.14,6.33l.051-.051.045-.044L6.36,6.11,6.374,6.1l.2-.189.2-.186c.128-.12.258-.238.388-.354.189-.167.38-.331.575-.492q.1-.082.2-.161l.2-.158q.4-.313.809-.607h0c.137-.1.276-.194.415-.289q.419-.285.853-.55c.19-.116.382-.229.577-.34l.16-.089c.121-.069.244-.135.367-.2l.226-.119q.339-.175.686-.339c.13-.061.261-.121.392-.18l.073-.033.071-.031.164-.07c.078-.033.157-.067.236-.1l.21-.086.027-.011h0l.193-.076L13.6,1.43l.028-.011.211-.08A21.305,21.305,0,0,1,18.767.147q.25-.03.5-.053c.167-.016.336-.03.5-.042l.252-.016c.147-.009.294-.016.441-.022l.092,0Q20.823,0,21.09,0a14.809,14.809,0,1,0,.082,29.618H21.4c.139,0,.277-.007.415-.016h.013l.192-.015h.018q.144-.013.287-.031a.183.183,0,0,0,.026,0c.059-.007.117-.015.176-.025.182-.027.362-.059.54-.1l.153-.034.048-.012.146-.037.124-.034.1-.028.029-.009.133-.041.126-.041.094-.032.166-.059q.088-.032.173-.067l.036-.014c.031-.013.062-.025.092-.039l.023-.009.023-.01.023-.009.013-.006.01,0,.023-.01.069-.03h0l.037-.017.03-.013.008,0c.041-.02.082-.038.123-.059l.051-.023.064-.032.009,0c.012-.006.025-.011.037-.018l.042-.022L25.1,28.7h0l.018-.01.088-.046.071-.038h0l.176-.1h0c.032-.02.064-.038.1-.059l.078-.046h0l.057-.036a.3.3,0,0,0,.034-.022l.015-.009c.022-.013.044-.027.065-.041l.064-.042a.514.514,0,0,0,.048-.032c.02-.012.039-.025.059-.039s.039-.025.056-.039l.021-.014.01-.007.081-.057.069-.051.1-.07h0l.061-.048.036-.028c.022-.016.044-.033.066-.051h0l.052-.042c.025-.02.051-.041.076-.062l.006,0,.027-.022.117-.1c.014-.011.027-.023.041-.035s.02-.019.031-.027c.031-.027.059-.053.089-.081a.341.341,0,0,0,.036-.033h0l.021-.02h0c.024-.021.048-.044.072-.067l.059-.056h0l.081-.081h0l.041-.041.039-.041c.02-.02.038-.039.055-.059s.047-.05.07-.074.044-.046.063-.07.046-.049.067-.074.044-.049.065-.074q.1-.112.19-.226c.036-.043.07-.088.1-.132l.018-.023c.016-.02.032-.041.047-.06s.048-.064.071-.1c.039-.052.078-.106.114-.16.02-.027.039-.054.057-.081s.038-.055.055-.082c.037-.053.071-.107.1-.162.02-.029.038-.059.055-.088s.022-.035.032-.053a.225.225,0,0,0,.02-.032q.052-.086.1-.172c.032-.057.065-.115.1-.173a.064.064,0,0,0,.006-.012c.014-.025.027-.05.039-.075,0-.006.006-.012.01-.019s.017-.032.025-.048l.011-.022c.006-.012.013-.024.018-.036s.018-.035.027-.053h0c.008-.015.015-.03.022-.045s.023-.048.034-.072.013-.025.018-.038l.011-.023c0-.008.007-.015.01-.022h0l.022-.05c.013-.029.026-.059.038-.086s.011-.025.016-.038l0-.008.008-.02c0-.006.008-.016.011-.025.016-.038.032-.076.048-.115l.009-.023c.025-.062.048-.124.072-.186s.04-.11.059-.166A.207.207,0,0,0,29.161,24c.009-.024.017-.049.025-.073q.064-.192.117-.385c.027-.1.053-.2.077-.294.016-.066.031-.132.045-.2q.043-.2.076-.4c.017-.1.032-.2.044-.305.022-.171.038-.344.049-.517.009-.14.015-.28.017-.421A14.814,14.814,0,0,1,8.088,34.485Zm8.619-2.969Zm0,0a14.846,14.846,0,0,0,4.511-.7,14.851,14.851,0,0,1-4.511.7Zm-4.743-.775-.048-.016Z" transform="translate(0 0.002)" stroke="rgba(0,0,0,0)" stroke-miterlimit="10" stroke-width="1" opacity="0.8" fill="url(#linear-gradient-5)"/>
    </g>
  </g>
</svg>
