<svg xmlns="http://www.w3.org/2000/svg" width="22.455" height="16.47" viewBox="0 0 22.455 16.47">
  <path id="game-controller" d="M22.98,13.362c-.992-4.486-2.486-6.881-4.7-7.535a5.012,5.012,0,0,0-1.434-.2,6.45,6.45,0,0,0-1.791.322,9.143,9.143,0,0,1-2.7.426,9.144,9.144,0,0,1-2.7-.426,6.454,6.454,0,0,0-1.789-.322,5.415,5.415,0,0,0-1.484.2c-2.2.651-3.7,3.045-4.7,7.532-1.083,4.829-.55,7.878,1.494,8.585a2.649,2.649,0,0,0,.872.15c1.4,0,2.523-1.166,3.29-2.121.867-1.081,1.882-1.629,5.022-1.629,2.8,0,3.966.381,4.968,1.629a6.846,6.846,0,0,0,1.82,1.68,2.744,2.744,0,0,0,2.347.3c1.208-.412,1.9-1.5,2.059-3.239A18.3,18.3,0,0,0,22.98,13.362ZM10.108,13.11h-1.5v1.5a.749.749,0,1,1-1.5,0v-1.5h-1.5a.749.749,0,0,1,0-1.5h1.5v-1.5a.749.749,0,0,1,1.5,0v1.5h1.5a.749.749,0,0,1,0,1.5Zm3.93.187a.936.936,0,1,1,.936-.936A.936.936,0,0,1,14.038,13.3ZM16.1,15.356a.936.936,0,1,1,.936-.934A.936.936,0,0,1,16.1,15.356Zm0-4.117a.936.936,0,1,1,.936-.936A.936.936,0,0,1,16.1,11.239ZM18.155,13.3a.936.936,0,1,1,.936-.936A.936.936,0,0,1,18.155,13.3Z" transform="translate(-1.127 -5.625)" fill="#eb8341"/>
</svg>
