<svg xmlns="http://www.w3.org/2000/svg" width="24.807" height="19.843" viewBox="0 0 24.807 19.843">
  <path id="Icon_awesome-code" data-name="Icon awesome-code" d="M10.809,19.826,8.445,19.14a.466.466,0,0,1-.318-.578L13.417.338a.466.466,0,0,1,.578-.318l2.364.686a.466.466,0,0,1,.318.578L11.386,19.508a.464.464,0,0,1-.578.318ZM6.39,15.477l1.686-1.8a.465.465,0,0,0-.031-.667L4.534,9.923,8.045,6.834a.462.462,0,0,0,.031-.667L6.39,4.369a.466.466,0,0,0-.659-.019L.146,9.582a.462.462,0,0,0,0,.678L5.732,15.5a.462.462,0,0,0,.659-.019Zm12.682.023,5.585-5.236a.462.462,0,0,0,0-.678l-5.585-5.24a.469.469,0,0,0-.659.019l-1.686,1.8a.465.465,0,0,0,.031.667L20.27,9.923l-3.512,3.089a.462.462,0,0,0-.031.667l1.686,1.8a.466.466,0,0,0,.659.023Z" transform="translate(0.002 -0.003)" fill="#eb8341"/>
</svg>
